<?xml version="1.0" standalone="no"?>
<!DOCTYPE svg PUBLIC "-//W3C//DTD SVG 20010904//EN"
 "http://www.w3.org/TR/2001/REC-SVG-20010904/DTD/svg10.dtd">
<svg version="1.0" xmlns="http://www.w3.org/2000/svg"
width="230.000000px" height="30.000000pt" viewBox="0 0 150.000000 103.000000"
 preserveAspectRatio="xMidYMid meet">

<g transform="translate(0.000000,103.000000) scale(0.100000,-0.100000)"
fill="#000000" stroke="none">
<path d="M517 921 c-157 -52 -269 -183 -298 -350 l-11 -60 -56 -4 c-32 -2 195
-3 503 -3 308 0 533 1 499 3 l-60 4 -11 64 c-24 143 -111 258 -240 322 -69 34
-84 38 -172 40 -74 2 -110 -1 -154 -16z m266 -81 c30 -11 72 -36 93 -56 39
-36 39 -36 4 -12 -90 64 -119 73 -225 73 -106 0 -135 -9 -225 -73 -35 -24 -35
-24 4 12 81 74 234 99 349 56z m-53 -89 c3 -6 51 -9 114 -8 l108 2 -8 -40 c-4
-22 -7 -61 -6 -86 1 -34 -3 -49 -13 -53 -11 -4 -14 -13 -9 -32 5 -19 4 -25 -5
-20 -6 4 -11 15 -11 24 0 14 -9 17 -45 17 -42 0 -44 -1 -38 -25 4 -17 2 -22
-5 -15 -5 6 -12 19 -14 30 -2 16 -13 21 -53 25 l-50 5 -8 70 c-4 39 -8 78 -9
88 -2 14 -11 17 -48 16 -25 -1 -34 -4 -22 -6 20 -4 23 -9 17 -31 -14 -52 -22
-153 -11 -142 29 29 106 -6 106 -47 0 -14 -3 -12 -13 6 -6 13 -19 29 -28 34
-25 15 -67 0 -83 -31 -10 -18 -15 -22 -16 -10 0 9 5 20 10 23 20 12 -1 25 -41
25 -30 0 -39 -4 -39 -17 0 -10 -5 -25 -11 -33 -8 -12 -9 -9 -5 13 6 26 5 27
-19 21 -14 -3 -46 -1 -70 6 l-43 12 5 54 c3 32 2 54 -4 54 -15 0 -44 -70 -50
-122 -3 -26 -9 -48 -13 -48 -11 0 6 89 25 138 10 23 21 42 26 42 5 0 6 12 3
28 l-6 27 116 -2 c66 -2 116 1 116 6 0 21 137 23 150 2z m259 -117 c12 -30 20
-71 20 -92 -1 -33 -2 -31 -10 16 -5 29 -18 70 -29 92 -22 43 -25 54 -11 45 5
-3 19 -30 30 -61z m-309 28 c0 -5 -14 -9 -30 -10 -17 0 -28 4 -25 9 8 11 55
12 55 1z m-279 -145 c-8 -8 -11 -7 -11 4 0 9 3 19 7 23 4 4 9 2 11 -4 3 -7 -1
-17 -7 -23z"/>
<path d="M698 743 c7 -3 16 -2 19 1 4 3 -2 6 -13 5 -11 0 -14 -3 -6 -6z"/>
<path d="M230 386 c0 -44 1 -46 29 -46 28 0 57 21 45 33 -4 4 -7 17 -8 29 -1
18 -8 24 -33 26 -33 3 -33 3 -33 -42z m47 18 c-3 -3 -12 -4 -19 -1 -8 3 -5 6
6 6 11 1 17 -2 13 -5z m3 -34 c0 -5 -7 -10 -15 -10 -8 0 -15 5 -15 10 0 6 7
10 15 10 8 0 15 -4 15 -10z"/>
<path d="M320 385 c0 -43 1 -45 29 -45 17 0 33 5 36 10 4 6 -5 10 -19 10 -14
0 -26 5 -26 10 0 6 9 10 20 10 28 0 25 20 -2 21 -21 1 -21 2 -3 6 38 9 40 23
2 23 l-37 0 0 -45z"/>
<path d="M400 385 c0 -43 1 -45 28 -45 28 0 62 26 62 48 0 20 -31 42 -61 42
-28 0 -29 -2 -29 -45z m58 3 c-5 -32 -28 -35 -28 -4 0 17 5 26 16 26 10 0 14
-7 12 -22z"/>
<path d="M540 385 c0 -46 17 -62 27 -25 3 11 12 20 19 20 8 0 14 -9 14 -20 0
-11 5 -20 10 -20 6 0 10 20 10 45 0 25 -4 45 -10 45 -5 0 -10 -7 -10 -15 0 -8
-7 -15 -15 -15 -8 0 -15 7 -15 15 0 8 -7 15 -15 15 -11 0 -15 -12 -15 -45z"/>
<path d="M640 396 c0 -39 19 -59 52 -54 19 2 23 10 26 46 4 48 -15 58 -20 10
-4 -46 -28 -49 -28 -4 0 25 -4 36 -15 36 -10 0 -15 -10 -15 -34z"/>
<path d="M740 385 c0 -25 5 -45 10 -45 6 0 10 12 10 28 l1 27 22 -27 c13 -16
26 -28 30 -28 4 0 7 20 7 45 0 25 -4 45 -10 45 -5 0 -10 -10 -10 -22 l0 -22
-16 22 c-26 37 -44 28 -44 -23z"/>
<path d="M843 416 c10 -8 17 -26 17 -45 0 -43 24 -36 28 7 2 18 7 32 13 32 5
0 9 5 9 10 0 6 -19 10 -42 10 -38 -1 -41 -2 -25 -14z"/>
<path d="M920 385 c0 -45 0 -45 35 -45 19 0 35 5 35 10 0 6 -9 10 -20 10 -27
0 -25 18 3 23 22 4 22 4 -3 15 -24 10 -24 11 -2 11 37 1 25 21 -13 21 -35 0
-35 0 -35 -45z"/>
<path d="M1002 389 c3 -39 28 -70 28 -35 0 20 16 21 24 1 3 -8 13 -15 22 -15
12 0 14 3 6 13 -6 7 -10 26 -9 43 2 27 -1 29 -36 32 l-38 3 3 -42z m53 11 c-3
-5 -10 -10 -16 -10 -5 0 -9 5 -9 10 0 6 7 10 16 10 8 0 12 -4 9 -10z"/>
<path d="M563 273 c59 -2 155 -2 215 0 59 1 10 3 -108 3 -118 0 -167 -2 -107
-3z"/>
<path d="M278 173 c83 -3 98 -7 140 -34 140 -89 341 -90 467 -2 35 25 52 29
140 34 55 3 -111 5 -370 5 -259 0 -428 -2 -377 -3z m377 -18 c44 0 96 3 115 7
34 8 34 8 -5 -7 -52 -20 -168 -20 -220 0 -39 15 -39 15 -5 7 19 -4 71 -7 115
-7z"/>
</g>
</svg>
